# xmcd
#
# Track frame offsets: 
#        150
#        18894
#        31112
#        45122
#        59199
#        71436
#        85692
#        102347
#        122555
#        137832
#        152996
#        168464
#        187423
#        204569
#
# Disc length: 2892 seconds
#
# Revision: 0
# Processed by: cddbd v1.5.2PL0 Copyright (c) Steve Scherf et al.
# Submitted via: ExactAudioCopy v1.1
#
DISCID=be0b4a0e
DTITLE=Aubrie Sellers - New City Blues
DYEAR=2016
DGENRE=Country
TTITLE0=Light Of Day
TTITLE1=Sit Here and Cry
TTITLE2=Paper Doll
TTITLE3=Losing Ground
TTITLE4=Magazines
TTITLE5=Dreaming In The Day
TTITLE6=Liar Liar
TTITLE7=Humming Song
TTITLE8=Just To Be With You
TTITLE9=People Talking
TTITLE10=Something Special
TTITLE11=Loveless Rolling Stone
TTITLE12=Like The Rain
TTITLE13=Living Is Killing Me
EXTD=
EXTT0=
EXTT1=
EXTT2=
EXTT3=
EXTT4=
EXTT5=
EXTT6=
EXTT7=
EXTT8=
EXTT9=
EXTT10=
EXTT11=
EXTT12=
EXTT13=
PLAYORDER=
